<?xml version="1.0" encoding="UTF-8"?>
<svg id="Capa_1" data-name="Capa 1" xmlns="http://www.w3.org/2000/svg" viewBox="0 0 564.5 149.17">
  <defs>
    <style>
      .cls-1 {
        letter-spacing: .1em;
      }

      .cls-2 {
        letter-spacing: .1em;
      }

      .cls-3, .cls-4, .cls-5 {
        fill: #005980;
      }

      .cls-4 {
        font-family: SFProText-Light, 'SF Pro Text';
        font-size: 21.14px;
        font-weight: 300;
      }

      .cls-6 {
        letter-spacing: .02em;
      }

      .cls-7 {
        letter-spacing: .07em;
      }

      .cls-8 {
        letter-spacing: .07em;
      }

      .cls-5 {
        fill-rule: evenodd;
      }

      .cls-9 {
        letter-spacing: .07em;
      }
    </style>
  </defs>
  <path class="cls-3" d="m525.15,67.21l-15.57-21.65h10.99l10.16,14.49,10.16-14.49h10.74l-15.57,21.4,16.24,22.57h-10.99l-10.83-15.41-10.74,15.41h-10.74l16.16-22.32Zm-35.98-37.98h10.83v9.58h-10.83v-9.58Zm.42,16.32h10.08v43.97h-10.08v-43.97Zm-34.98,0h10.08v9.91c1.39-3.33,3.36-6,5.91-8,2.56-2,5.77-2.92,9.66-2.75v10.66h-.58c-2.22,0-4.25.36-6.08,1.08-1.83.72-3.42,1.8-4.75,3.25-1.33,1.44-2.36,3.26-3.08,5.45-.72,2.19-1.08,4.73-1.08,7.62v16.74h-10.08v-43.97Zm-19.4,44.72c-1.83,0-3.52-.22-5.08-.67-1.55-.44-2.9-1.17-4.04-2.17-1.14-1-2.01-2.32-2.62-3.96-.61-1.64-.92-3.68-.92-6.12v-23.15h-5.58v-8.66h5.58v-12.08h10.08v12.08h11.83v8.66h-11.83v21.57c0,1.94.47,3.35,1.42,4.21.94.86,2.28,1.29,4,1.29,2.17,0,4.25-.5,6.25-1.5v8.25c-1.28.72-2.64,1.28-4.08,1.67-1.44.39-3.11.58-5,.58Zm-44.89.25c-3.16,0-6.12-.55-8.87-1.67-2.75-1.11-5.14-2.66-7.16-4.66-2.03-2-3.62-4.4-4.79-7.2-1.17-2.8-1.75-5.9-1.75-9.29v-.17c0-3.16.53-6.14,1.58-8.91,1.06-2.78,2.54-5.21,4.46-7.29,1.92-2.08,4.18-3.72,6.79-4.91,2.61-1.19,5.5-1.79,8.66-1.79,3.5,0,6.57.64,9.2,1.92,2.64,1.28,4.83,3,6.58,5.16,1.75,2.17,3.07,4.68,3.96,7.54.89,2.86,1.33,5.87,1.33,9.04,0,.44-.01.9-.04,1.37-.03.47-.07.96-.12,1.46h-32.31c.55,3.61,1.98,6.37,4.29,8.29,2.3,1.91,5.09,2.87,8.37,2.87,2.5,0,4.66-.44,6.5-1.33,1.83-.89,3.64-2.19,5.41-3.91l5.91,5.25c-2.11,2.5-4.62,4.5-7.54,6-2.92,1.5-6.4,2.25-10.45,2.25Zm9.99-26.07c-.17-1.61-.53-3.12-1.08-4.54-.56-1.42-1.3-2.64-2.25-3.66-.94-1.03-2.07-1.85-3.37-2.46-1.3-.61-2.79-.92-4.46-.92-3.11,0-5.68,1.07-7.7,3.21-2.03,2.14-3.26,4.93-3.71,8.37h22.57Zm-109.27-18.91h10.08v6.66c.72-1,1.5-1.94,2.33-2.83.83-.89,1.79-1.69,2.87-2.41,1.08-.72,2.3-1.29,3.66-1.71,1.36-.42,2.87-.62,4.54-.62,3.16,0,5.84.71,8.04,2.12,2.19,1.42,3.87,3.29,5.04,5.62,1.78-2.33,3.87-4.21,6.29-5.62,2.42-1.42,5.29-2.12,8.62-2.12,4.83,0,8.61,1.46,11.33,4.37,2.72,2.91,4.08,7.06,4.08,12.45v28.07h-10.08v-24.98c0-3.5-.78-6.16-2.33-7.99-1.55-1.83-3.75-2.75-6.58-2.75s-5.04.93-6.79,2.79c-1.75,1.86-2.62,4.57-2.62,8.12v24.82h-10.08v-25.07c0-3.44-.78-6.08-2.33-7.91-1.55-1.83-3.75-2.75-6.58-2.75s-5.11.97-6.83,2.91c-1.72,1.94-2.58,4.64-2.58,8.08v24.73h-10.08v-43.97Zm-23.65-16.32h10.83v9.58h-10.83v-9.58Zm.42,16.32h10.08v43.97h-10.08v-43.97Zm-27.15,44.81c-3.16,0-6.37-.56-9.62-1.67-3.25-1.11-6.26-2.75-9.04-4.91l4.5-6.83c2.39,1.78,4.82,3.12,7.29,4.04,2.47.92,4.84,1.37,7.12,1.37s3.85-.43,5.04-1.29c1.19-.86,1.79-2.01,1.79-3.46v-.17c0-.83-.26-1.55-.79-2.17-.53-.61-1.25-1.14-2.17-1.58-.92-.44-1.97-.86-3.16-1.25-1.19-.39-2.43-.78-3.71-1.16-1.61-.44-3.23-.97-4.87-1.58-1.64-.61-3.11-1.4-4.41-2.37-1.3-.97-2.37-2.18-3.21-3.62-.83-1.44-1.25-3.22-1.25-5.33v-.17c0-2.05.4-3.91,1.21-5.58.81-1.67,1.92-3.08,3.33-4.25,1.42-1.17,3.08-2.05,5-2.67,1.92-.61,3.96-.92,6.12-.92,2.78,0,5.58.44,8.41,1.33,2.83.89,5.41,2.11,7.75,3.66l-4,7.16c-2.11-1.28-4.25-2.29-6.41-3.04-2.17-.75-4.16-1.12-6-1.12-1.94,0-3.46.42-4.54,1.25-1.08.83-1.62,1.89-1.62,3.16v.17c0,.78.28,1.46.83,2.04.56.58,1.29,1.11,2.21,1.58.92.47,1.97.92,3.16,1.33,1.19.42,2.43.82,3.71,1.21,1.61.5,3.22,1.08,4.83,1.75,1.61.67,3.07,1.49,4.37,2.46,1.3.97,2.37,2.15,3.21,3.54.83,1.39,1.25,3.08,1.25,5.08v.17c0,2.33-.42,4.36-1.25,6.08-.83,1.72-1.99,3.15-3.46,4.29-1.47,1.14-3.21,2-5.2,2.58-2,.58-4.14.87-6.41.87Zm-59.05-59.55h9.49l25.65,58.71h-10.83l-5.91-14.07h-27.57l-6,14.07h-10.49l25.65-58.71Zm14.66,35.56l-10.08-23.32-9.99,23.32h20.07Z"/>
  <text class="cls-4" transform="translate(155.96 119.85)"><tspan class="cls-2" x="0" y="0">UN</tspan><tspan class="cls-9" x="35.07" y="0">L</tspan><tspan class="cls-1" x="48.23" y="0">OCKING THE P</tspan><tspan class="cls-8" x="219.98" y="0">O</tspan><tspan class="cls-2" x="237.59" y="0">WER OF </tspan><tspan class="cls-7" x="337.92" y="0">D</tspan><tspan class="cls-6" x="354.5" y="0">AT</tspan><tspan class="cls-2" x="382.57" y="0">A</tspan></text>
  <path class="cls-5" d="m95.41,54.56c3.49,0,6.32,2.83,6.32,6.32v.14s0,.01,0,.01h0v.02h0s0,.14,0,.14h0v.02h0s0,.02,0,.02v.13s0,0,0,0h0v.14s-.01,0-.01,0h0s0,.02,0,.02h0c-.33,3.19-3.02,5.66-6.29,5.66-3.49,0-6.32-2.83-6.32-6.33,0-2.07.99-3.9,2.53-5.06h0s.01-.02.01-.02c.08-.06.16-.11.23-.17h0s0,0,0,0l.11-.07h.02s0-.02,0-.02l.12-.07h0s.02,0,.02,0l.09-.05.06-.03h.02s.05-.04.05-.04l.03-.02.03-.02.06-.03.05-.03h0s.06-.03.06-.03l.06-.03h.01s.05-.03.05-.03l.08-.04h.01s.03-.02.03-.02l.12-.05h0c.08-.03.16-.06.24-.09l.05-.02h.02s.12-.05.12-.05h0s.15-.05.15-.05h0s.14-.04.14-.04h.01s.13-.04.13-.04h.02s0,0,0,0l.13-.03h.04s.12-.03.12-.03h.01s0,0,0,0h0c.1-.02.19-.04.29-.05h.03s.13-.02.13-.02h.01l.15-.02h0s.04,0,.04,0h.13s0-.01,0-.01h.14s.02,0,.02,0h.02s.13,0,.13,0h.01s.03,0,.03,0h.14Zm36.4,18.53c4.9,0,8.88,3.98,8.88,8.88s-3.97,8.88-8.88,8.88-8.88-3.97-8.88-8.88,3.98-8.88,8.88-8.88m-40.44,18.66c2.42,0,4.39,1.97,4.39,4.39s-1.97,4.39-4.39,4.39-4.39-1.97-4.39-4.39,1.96-4.39,4.39-4.39m-11.06,33.28c2.02,0,3.66,1.64,3.66,3.66s-1.64,3.66-3.66,3.66-3.66-1.64-3.66-3.66,1.64-3.66,3.66-3.66m42.14-14.53c1.42,0,2.58,1.15,2.58,2.58s-1.15,2.58-2.58,2.58-2.57-1.15-2.57-2.58,1.15-2.58,2.57-2.58m-71-12.95c5.5,0,9.96,4.46,9.96,9.96s-4.46,9.96-9.96,9.96-9.96-4.46-9.96-9.96,4.46-9.96,9.96-9.96m-18.53-26.45c2.1,0,3.8,1.7,3.8,3.79s-1.7,3.8-3.8,3.8-3.79-1.7-3.79-3.8,1.7-3.79,3.79-3.79m98.12-23.36c1.42,0,2.57,1.15,2.57,2.57s-1.15,2.58-2.57,2.58-2.57-1.15-2.57-2.58,1.15-2.57,2.57-2.57m-19.09-19.35c1.2,0,2.18.98,2.18,2.18s-.98,2.18-2.18,2.18-2.18-.98-2.18-2.18.97-2.18,2.18-2.18m-25.77-7.9c2.43,0,4.39,1.97,4.39,4.39s-1.97,4.39-4.39,4.39-4.39-1.97-4.39-4.39,1.97-4.39,4.39-4.39m-28.2,27.76c-.56.79-1.23,1.49-1.98,2.1l5.47,11.35c.86-.2,1.76-.31,2.68-.31,4.05,0,7.62,2.06,9.72,5.18l10.35-4.04c-.08-.54-.12-1.09-.12-1.66,0-.63.05-1.24.15-1.85l-11.39-4.67-14.89-6.11Zm-8.88-12.31c3.27,0,5.93,2.66,5.93,5.93s-2.65,5.93-5.93,5.93-5.93-2.66-5.93-5.93,2.66-5.93,5.93-5.93m69.64,41.37l-15.02-8.72c-1.8,1.93-4.27,3.24-7.03,3.54l-1.76,15.3c1.72.7,3.18,1.9,4.22,3.41l18.96-6.73c-.11-.7-.17-1.42-.17-2.15,0-1.64.28-3.2.8-4.66m-44.23,1.23l11.61,9.83c1.11-.75,2.4-1.28,3.78-1.5l1.75-15.3c-2.3-.81-4.27-2.35-5.61-4.34l-10.32,4.05c.09.59.14,1.2.14,1.82,0,1.97-.49,3.82-1.34,5.45m-9.56,22.49l17.04-5c.02-1.35.32-2.64.85-3.8l-11.6-9.83c-1.97,1.49-4.42,2.38-7.08,2.38-.53,0-1.06-.04-1.58-.11l-3.64,9.87c2.6,1.5,4.7,3.76,6.01,6.48m18.35-.11l-16.97,4.95c.06.54.09,1.09.09,1.64,0,8.26-6.7,14.96-14.96,14.96s-14.96-6.7-14.96-14.96,6.7-14.96,14.96-14.96c.93,0,1.85.09,2.73.25l3.64-9.87c-2.36-1.53-4.15-3.88-4.93-6.65l-11.41.66c-.92,3.87-4.4,6.76-8.56,6.76-4.86,0-8.8-3.94-8.8-8.8s3.94-8.8,8.8-8.8c3.8,0,7.04,2.41,8.27,5.79l11.41-.66c.47-2.95,2.06-5.54,4.3-7.32l-5.47-11.35c-.75.17-1.54.25-2.34.25-6.04,0-10.94-4.9-10.94-10.94s4.9-10.93,10.94-10.93,10.93,4.9,10.93,10.93c0,.58-.05,1.14-.13,1.7l15.05,6.17,11.17,4.68c1.05-1.51,2.46-2.75,4.1-3.6l-4.25-16.54c-5.09-.11-9.19-4.27-9.19-9.39s4.21-9.39,9.39-9.39,9.39,4.2,9.39,9.39c0,3.47-1.88,6.5-4.69,8.13l4.25,16.54c.1,0,.19,0,.29,0,1.06,0,2.09.15,3.06.42l8.02-14.71c-1.09-1.26-1.74-2.9-1.74-4.69,0-3.96,3.22-7.18,7.18-7.18s7.18,3.22,7.18,7.18-3.22,7.18-7.18,7.18c-.34,0-.67-.02-.99-.07l-8.02,14.72c.94.83,1.73,1.81,2.35,2.91l18.18-5.4c.2-4,3.52-7.18,7.57-7.18s7.58,3.39,7.58,7.58-3.39,7.58-7.58,7.58c-2.52,0-4.75-1.23-6.12-3.12l-18.18,5.4c.01.24.02.47.02.71,0,1.16-.17,2.28-.5,3.33l15.03,8.72c2.55-2.96,6.32-4.84,10.53-4.84,7.67,0,13.88,6.22,13.88,13.89s-6.22,13.88-13.88,13.88c-5.15,0-9.65-2.81-12.05-6.98l-19.02,6.67c.01.2.02.4.02.6,0,.72-.08,1.43-.24,2.1l16.86,9.19c1.34-1.2,3.11-1.93,5.06-1.93,4.18,0,7.58,3.39,7.58,7.58s-3.39,7.58-7.58,7.58-7.58-3.39-7.58-7.58c0-.4.03-.8.09-1.19l-16.86-9.19c-1.71,1.75-4.09,2.84-6.73,2.84-.17,0-.34,0-.51-.02l-5.49,16.14c2.18,1.57,3.6,4.13,3.6,7.03,0,4.78-3.88,8.66-8.66,8.66s-8.66-3.88-8.66-8.66,3.88-8.66,8.66-8.66c.09,0,.18,0,.27,0l5.49-16.14c-1.13-.77-2.08-1.79-2.78-2.97m-19.14-34.53c3.7,0,6.69,3,6.69,6.7s-3,6.69-6.69,6.69-6.7-3-6.7-6.69,3-6.7,6.7-6.7"/>
</svg>